PathFileType	4	(X/Y/Z)	C:/Users/beibeiliu/ov580/test_trc/User2\sequence.10_training_dense_right.trc
DataRate	CameraRate	NumFrames	NumMarkers	Units	OrigDataRate	OrigDataStartFrame	OrigNumFrames
120	120	14	19	mm	120	182	484
Frame#	Time	ThumbCMC			ThumbMCP			ThumbIP			ThumbTip			IndexMCP			IndexPIP			IndexTip			MiddleMCP			MiddlePIP			MiddleTip			RingMCP			RingPIP			RingTip			PinkyMCP			PinkyPIP			PinkyTip			BackHand1			BackHand2			BackHand3	
		X0	Y0	Z0	X1	Y1	Z1	X2	Y2	Z2	X3	Y3	Z3	X4	Y4	Z4	X5	Y5	Z5	X6	Y6	Z6	X7	Y7	Z7	X8	Y8	Z8	X9	Y9	Z9	X10	Y10	Z10	X11	Y11	Z11	X12	Y12	Z12	X13	Y13	Z13	X14	Y14	Z14	X15	Y15	Z15	X16	Y16	Z16	X17	Y17	Z17	X18	Y18	Z18	
181	1.50833	76.4515	-35.3555	100.606	60.1562	-64.2298	83.1885	55.4065	-88.3368	60.695	65.0707	-105.184	38.8175	74.0029	-24.1482	21.2153	66.5606	-28.4998	-8.29492	61.6968	-33.091	-32.3053	97.2663	-52.8725	14.2038	86.6348	-89.8545	13.6377	81.7441	-103.274	52.1104	116.462	-70.0747	21.7512	104.641	-100.983	33.0794	94.137	-99.8745	66.4173	132.714	-79.6876	35.0144	113.387	-98.5052	53.4536	107.023	-86.1735	79.5794	133.065	-21.69	62.8571	142.427	-11.0423	92.8936	106.577	-8.56366	84.3581	
182	1.51667	65.2014	-34.3685	107.683	49.6677	-62.3005	92.0909	39.5101	-87.5949	61.0247	48.1176	-103.157	39.9431	54.1893	-20.2719	25.033	45.754	-23.254	0.300973	38.0899	-27.4192	-23.3389	76.4201	-48.9978	18.112	68.7833	-85.4113	14.5676	65.2701	-101.822	54.9866	94.5934	-65.8351	23.1641	85.5283	-99.4719	33.8163	85.3127	-99.0646	70.3623	114.041	-78.7917	32.5553	97.0345	-96.2842	53.8645	94.9472	-82.4648	79.9403	119.842	-21.6079	58.6468	135.746	-14.0148	93.3093	94.0465	-5.34478	86.5969	
183	1.525	62.1033	-35.1028	109.086	42.2777	-62.9212	91.2024	30.8076	-85.5419	65.574	37.8612	-101.417	41.2754	48.9545	-19.3921	31.832	32.0628	-20.2974	7.29712	21.6078	-21.2749	-16.5178	69.1569	-48.4285	18.4017	57.5583	-85.5655	16.3257	60.8977	-100.441	54.1842	84.6866	-69.143	21.6065	74.9991	-97.6905	35.9998	74.5483	-97.1073	70.0806	108.794	-75.9288	33.9831	90.9644	-97.0357	53.868	88.6821	-75.9676	81.0182	113.006	-21.1157	60.603	128.102	-13.8097	94.6308	85.6021	-6.57986	88.0145	
184	1.53333	56.7636	-35.4868	105.631	42.3823	-61.7727	85.499	31.9964	-84.7848	59.4289	40.8381	-98.1533	38.1743	46.2427	-18.3284	28.0814	35.3593	-19.3052	1.29845	28.4388	-21.5196	-22.2541	69.4837	-48.6055	15.2273	61.4582	-82.1052	12.6317	59.5415	-100.788	52.3426	86.7976	-65.5077	22.9912	74.1535	-95.1394	32.6975	75.0504	-97.389	69.0188	107.167	-73.0058	34.0784	92.6006	-98.2501	52.8363	90.3683	-79.7681	79.6795	111.227	-21.9345	63.3669	122.006	-12.8002	94.2171	85.2633	-8.23408	88.7033	
185	1.54167	62.0293	-36.763	103.747	44.4871	-64.0143	83.8833	41.9139	-84.9716	55.459	49.9058	-100.537	32.3214	58.7055	-21.1231	20.3307	51.7988	-22.6087	-2.99599	47.9314	-27.485	-34.7232	77.3833	-50.5093	11.4683	71.8443	-87.0225	12.1561	67.5573	-100.843	46.2628	97.2683	-71.2312	20.6853	89.0617	-96.9152	28.7908	77.7102	-98.7222	65.2842	116.916	-73.8423	35.0767	97.1141	-97.7078	52.004	93.6818	-81.6757	77.6995	117.445	-23.2447	61.8044	128.456	-15.3639	99.6896	89.1935	-7.95326	88.7276	
186	1.55	67.6591	-37.2527	99.4383	52.984	-65.8596	76.4472	53.4111	-88.4588	47.8662	62.5087	-105.024	28.6171	75.8799	-25.8861	17.7321	72.7788	-30.1697	-12.0166	74.6855	-35.7557	-39.4907	95.7084	-53.9086	12.033	86.488	-89.6066	8.23376	77.6783	-104.945	48.706	114.692	-75.7186	21.8884	102.691	-101.469	31.6526	87.8887	-102.553	64.7416	132.363	-83.3139	38.1971	107.861	-99.7525	52.8077	97.8832	-85.4807	77.9815	128.604	-25.5854	65.4593	136.015	-15.242	98.8413	96.8965	-9.47463	79.892	
187	1.55833	75.2489	-38.6817	95.2494	65.3421	-68.8173	72.0676	61.8413	-95.1566	49.2	73.2778	-113.877	29.9063	97.1046	-33.704	14.5794	94.5844	-37.8655	-17.5065	102.14	-44.7475	-40.5958	113.271	-63.3706	13.2829	99.721	-100.677	13.9887	90.1357	-110.259	50.9915	127.36	-82.5313	24.9583	113.532	-106.813	33.7652	97.1942	-107.778	69.2889	143.601	-90.9949	43.9978	120.218	-108.778	61.1727	105.679	-91.579	85.5708	143.853	-29.9885	67.2121	142.659	-17.9782	97.3979	107.167	-13.7245	77.2474	
188	1.56667	82.1838	-41.2973	94.0585	67.1614	-73.3102	74.7519	70.8646	-100.978	49.3423	81.8608	-121.01	34.703	105.748	-40.027	12.0124	109.644	-48.4302	-15.5578	116.658	-54.6587	-38.7031	122.141	-72.6403	13.5397	115.897	-107.236	17.6241	97.8539	-116.12	56.5167	135.712	-87.1592	29.8972	123.914	-114.976	39.8164	106.052	-114.65	73.507	149.58	-91.7212	48.7864	125.669	-112.633	63.3017	109.408	-96.8805	88.0885	150.043	-35.4228	71.3309	147.674	-20.2299	97.603	118.266	-16.1903	80.7525	
189	1.575	80.1081	-45.6186	94.8213	69.5969	-77.9298	77.1726	70.1089	-108.181	54.4421	85.8236	-125.574	41.7648	104.747	-45.9993	18.6478	105.977	-53.2711	-12.3566	110.332	-60.1906	-35.3432	122.452	-77.6397	17.9633	109.631	-114.575	24.0567	97.798	-121.806	59.1208	135.838	-94.5461	33.1696	121.745	-118.668	44.8334	109.91	-118.584	77.9907	154.686	-95.7401	54.4279	127.033	-115.164	67.6012	114.745	-101.784	90.2896	152.364	-38.2019	71.8293	148.908	-22.2009	101.74	115.041	-20.0286	81.4843	
190	1.58333	79.317	-46.3551	106.844	66.6705	-79.5538	86.8068	64.3625	-108.224	66.7514	78.7958	-127.513	47.6313	92.7232	-47.4195	22.3224	91.93	-55.2772	-4.56634	95.0181	-62.8479	-31.3565	113.196	-76.442	24.2867	103.761	-116.01	29.773	94.8162	-122.451	68.3803	126.986	-95.8949	35.8734	115.7	-119.941	47.9472	103.542	-118.657	84.9089	144.938	-94.1254	52.8971	123.903	-117.71	68.8208	113.597	-102.932	94.2377	146.576	-41.7619	70.887	147.071	-23.9329	105.269	109.601	-21.1879	86.0356	
191	1.59167	76.4577	-48.9231	111.106	62.5342	-77.8921	99.9279	53.7356	-108.407	72.7537	62.1163	-125.867	57.2559	79.9307	-47.6273	27.8303	73.2821	-53.2344	4.61843	69.4162	-59.0725	-19.0076	97.5863	-78.5533	25.8382	89.4358	-111.975	30.8264	83.1901	-121.745	70.1638	116.713	-90.659	37.3616	102.624	-118.173	49.3513	94.1794	-117.256	84.8537	135.695	-97.5436	51.378	116.667	-118.956	71.7013	105.838	-97.5506	95.7848	134.22	-38.045	72.428	140.682	-25.8415	105.362	106.117	-24.5767	89.5226	
192	1.6	70.7694	-46.552	118.621	51.3884	-77.1142	104.829	46.7471	-100.897	77.9834	50.2568	-119.652	60.1094	62.715	-39.5316	38.022	58.9205	-45.9422	14.0107	49.7921	-51.1938	-15.4253	83.4419	-70.7704	28.9476	72.0818	-105.582	33.7423	70.8775	-118.525	71.0753	98.8729	-88.0799	36.8102	92.4638	-114.898	48.3711	83.9881	-113.39	86.9154	118.526	-93.0493	49.261	103.583	-114.643	71.1358	102.383	-97.3364	97.4308	126.619	-38.1757	74.0758	134.632	-25.96	102.899	99.3542	-19.4951	98.9868	
193	1.60833	71.8683	-44.2046	123.089	49.2855	-72.8543	101.431	40.797	-95.2775	81.3506	44.2261	-112.051	56.5317	59.9206	-31.7868	43.2421	49.8765	-35.375	17.0369	39.399	-40.4073	-11.7686	74.9834	-61.8748	29.6922	65.2552	-94.0763	28.7178	65.5497	-112.176	64.5323	97.2505	-76.8856	36.191	82.77	-106.854	47.0006	80.5132	-109.909	84.2532	119.738	-87.4077	48.0731	99.3438	-109.618	69.6687	99.6855	-89.4879	95.7247	125.025	-33.4492	70.6212	138.288	-23.5946	105.776	98.0824	-17.007	101.663	
194	1.61667	69.803	-41.2422	118.627	50.5435	-68.018	96.2591	43.0395	-88.9013	68.4094	49.3374	-103.275	48.1282	66.6623	-24.5411	34.7905	56.3272	-26.5649	10.074	53.1218	-32.0685	-15.6803	83.4829	-54.0903	23.0464	74.9631	-89.0729	22.0509	71.4532	-107.188	56.7438	101.753	-71.2543	31.7565	91.8713	-100.115	39.2241	86.8127	-106.602	73.8774	118.379	-80.5545	42.5835	105.317	-102.986	60.5251	96.9553	-85.455	86.0765	125.83	-28.6336	71.5421	137.861	-18.923	105.174	98.1764	-12.2348	97.7776	
